<svg fill="#fff" stroke="#000" viewBox="0 0 72 81" xmlns="http://www.w3.org/2000/svg"><path d="M1,1L71,1L71,80L1,80ZM12,12L12,36M30,12L30,36M15,18L15,24M27,18L27,24M18,24L18,30M24,24L24,30M21,30L21,36M51,12L51,18M48,18L48,24M54,18L54,24M45,24L45,30M51,24L51,30M57,24L57,30M42,30L42,36M60,30L60,36M12,45L12,69M15,45L15,48M18,45L18,48M21,45L21,48M24,48L24,51M27,51L27,54M24,54L24,57M15,57L15,60M18,57L18,60M21,57L21,60M24,60L24,63M27,63L27,66M30,66L30,69M42,45L42,69M60,45L60,48M57,48L57,51M54,51L54,54M45,54L45,57M51,54L51,57M48,57L48,60M45,60L45,63M54,60L54,63M57,63L57,66M60,66L60,69"/></svg>